%TF.GenerationSoftware,KiCad,Pcbnew,10.0.5*%
%TF.CreationDate,2026-08-06T13:57:41-04:00*%
%TF.ProjectId,Offical Final Design PCB,4f666669-6361-46c2-9046-696e616c2044,rev?*%
%TF.SameCoordinates,Original*%
%TF.FileFunction,Copper,L2,Bot*%
%TF.FilePolarity,Positive*%
%FSLAX46Y46*%
G04 Gerber Fmt 4.6, Leading zero omitted, Abs format (unit mm)*
G04 Created by KiCad (PCBNEW 10.0.5) date 2026-08-06 13:57:41*
%MOMM*%
%LPD*%
G01*
G04 APERTURE LIST*
%TA.AperFunction,ComponentPad*%
%ADD10R,1.700000X1.700000*%
%TD*%
%TA.AperFunction,ComponentPad*%
%ADD11C,1.700000*%
%TD*%
%TA.AperFunction,ComponentPad*%
%ADD12C,1.000000*%
%TD*%
%TA.AperFunction,ComponentPad*%
%ADD13O,1.000000X2.100000*%
%TD*%
%TA.AperFunction,ComponentPad*%
%ADD14O,1.000000X1.800000*%
%TD*%
%TA.AperFunction,ViaPad*%
%ADD15C,0.600000*%
%TD*%
%TA.AperFunction,Conductor*%
%ADD16C,0.200000*%
%TD*%
G04 APERTURE END LIST*
D10*
%TO.P,J4,1,Pin_1_1*%
%TO.N,GND*%
X202425000Y-51055000D03*
D11*
%TO.P,J4,2,Pin_2_2*%
X204965000Y-51055000D03*
%TO.P,J4,3,Pin_3_3*%
X207505000Y-51055000D03*
%TO.P,J4,4,Pin_4_4*%
X210045000Y-51055000D03*
%TO.P,J4,5,Pin_5_5*%
X212585000Y-51055000D03*
%TO.P,J4,6,Pin_6_6*%
X215125000Y-51055000D03*
%TD*%
D10*
%TO.P,J2,1,Pin_1_1*%
%TO.N,/3*%
X202155000Y-42555000D03*
D11*
%TO.P,J2,2,Pin_2_2*%
%TO.N,/5*%
X204695000Y-42555000D03*
%TO.P,J2,3,Pin_3_3*%
%TO.N,/6*%
X207235000Y-42555000D03*
%TO.P,J2,4,Pin_4_4*%
%TO.N,/9*%
X209775000Y-42555000D03*
%TO.P,J2,5,Pin_5_5*%
%TO.N,/10*%
X212315000Y-42555000D03*
%TO.P,J2,6,Pin_6_6*%
%TO.N,/11*%
X214855000Y-42555000D03*
%TD*%
D12*
%TO.P,Y5,1,1_1*%
%TO.N,Net-(U12-XI)*%
X232405000Y-46750000D03*
%TO.P,Y5,2,2_2*%
%TO.N,Net-(U12-XO)*%
X232405000Y-48250000D03*
%TD*%
D10*
%TO.P,J9,1,Pin_1_1*%
%TO.N,/Reset*%
X219775000Y-42555000D03*
%TD*%
%TO.P,J10,1,Pin_1_1*%
%TO.N,/5V*%
X205050000Y-77555000D03*
D11*
%TO.P,J10,2,Pin_2_2*%
X202510000Y-77555000D03*
%TD*%
D10*
%TO.P,J15,1,Pin_1_1*%
%TO.N,/Batt +*%
X205050000Y-73500000D03*
D11*
%TO.P,J15,2,Pin_2_2*%
X202510000Y-73500000D03*
%TD*%
D10*
%TO.P,J13,1,Pin_1_1*%
%TO.N,/Batt +*%
X205000000Y-69555000D03*
D11*
%TO.P,J13,2,Pin_2_2*%
X202460000Y-69555000D03*
%TD*%
D10*
%TO.P,J14,1,Pin_1_1*%
%TO.N,GND*%
X204775000Y-89500000D03*
D11*
%TO.P,J14,2,Pin_2_2*%
X202235000Y-89500000D03*
%TD*%
D10*
%TO.P,J7,1,Pin_1_1*%
%TO.N,/A0*%
X206275000Y-54880000D03*
D11*
%TO.P,J7,2,Pin_2_2*%
%TO.N,/A1*%
X206275000Y-57420000D03*
%TO.P,J7,3,Pin_3_3*%
%TO.N,/A2*%
X206275000Y-59960000D03*
%TO.P,J7,4,Pin_4_4*%
%TO.N,/A3*%
X206275000Y-62500000D03*
%TD*%
D12*
%TO.P,Y3,1,1_1*%
%TO.N,/Crystal 1.*%
X232405000Y-53750000D03*
%TO.P,Y3,2,2_2*%
%TO.N,/Crystal 2.*%
X232405000Y-55250000D03*
%TD*%
D10*
%TO.P,J11,1,Pin_1_1*%
%TO.N,GND*%
X204775000Y-85500000D03*
D11*
%TO.P,J11,2,Pin_2_2*%
X202235000Y-85500000D03*
%TD*%
D12*
%TO.P,Y1,1,1_1*%
%TO.N,/Crystal1*%
X232405000Y-50250000D03*
%TO.P,Y1,2,2_2*%
%TO.N,/Crystal2*%
X232405000Y-51750000D03*
%TD*%
D10*
%TO.P,J6,1,Pin_1_1*%
%TO.N,/2*%
X202275000Y-55575000D03*
D11*
%TO.P,J6,2,Pin_2_2*%
%TO.N,/4*%
X202275000Y-58115000D03*
%TO.P,J6,3,Pin_3_3*%
%TO.N,/7*%
X202275000Y-60655000D03*
%TO.P,J6,4,Pin_4_4*%
%TO.N,/12*%
X202275000Y-63195000D03*
%TO.P,J6,5,Pin_5_5*%
%TO.N,/13*%
X202275000Y-65735000D03*
%TD*%
D10*
%TO.P,J8,1,Pin_1_1*%
%TO.N,/Rx*%
X220500000Y-47280000D03*
D11*
%TO.P,J8,2,Pin_2_2*%
%TO.N,/Tx*%
X220500000Y-49820000D03*
%TD*%
D10*
%TO.P,J12,1,Pin_1_1*%
%TO.N,/5V*%
X205000000Y-81500000D03*
D11*
%TO.P,J12,2,Pin_2_2*%
X202460000Y-81500000D03*
%TD*%
D10*
%TO.P,J1,1,Pin_1_1*%
%TO.N,/Batt +*%
X227735000Y-43055000D03*
D11*
%TO.P,J1,2,Pin_2_2*%
%TO.N,GND*%
X230275000Y-43055000D03*
%TD*%
D13*
%TO.P,J5,SH,SHIELD_SH*%
%TO.N,unconnected-(J5-SHIELD-PadSH)_1*%
X210455000Y-85395000D03*
D14*
%TO.N,unconnected-(J5-SHIELD-PadSH)_3*%
X210455000Y-89575000D03*
D13*
%TO.N,unconnected-(J5-SHIELD-PadSH)*%
X219095000Y-85395000D03*
D14*
%TO.N,unconnected-(J5-SHIELD-PadSH)_2*%
X219095000Y-89575000D03*
%TD*%
D10*
%TO.P,J3,1,Pin_1_1*%
%TO.N,/Batt +*%
X202195000Y-47055000D03*
D11*
%TO.P,J3,2,Pin_2_2*%
X204735000Y-47055000D03*
%TO.P,J3,3,Pin_3_3*%
X207275000Y-47055000D03*
%TO.P,J3,4,Pin_4_4*%
X209815000Y-47055000D03*
%TO.P,J3,5,Pin_5_5*%
X212355000Y-47055000D03*
%TO.P,J3,6,Pin_6_6*%
X214895000Y-47055000D03*
%TD*%
D15*
%TO.N,/5V*%
X215849900Y-88257900D03*
X226757400Y-62989600D03*
X230244700Y-81866400D03*
X224404100Y-65342900D03*
X212632100Y-71301300D03*
X212642700Y-87223500D03*
%TO.N,Net-(J5-D+-PadA6)*%
X215260900Y-85909900D03*
X211695400Y-79821400D03*
%TO.N,/USB_D-*%
X215255200Y-82316400D03*
X225550200Y-87416700D03*
%TO.N,/USB_D+*%
X215050100Y-78788500D03*
X229426300Y-82339600D03*
X228789400Y-84200900D03*
X225725700Y-77473200D03*
%TO.N,Net-(U3-SCL)*%
X220841300Y-82735500D03*
X228178700Y-52325900D03*
X231877400Y-56467200D03*
X220910000Y-54798000D03*
%TO.N,/A5*%
X219400000Y-62133500D03*
X217477600Y-70113500D03*
X227359100Y-62225300D03*
X222202200Y-52930200D03*
%TO.N,Net-(D2-K)*%
X226351500Y-65396200D03*
X212361800Y-72166200D03*
%TO.N,/Rx*%
X219619800Y-50995100D03*
X228723500Y-59685900D03*
X225515700Y-82421900D03*
%TO.N,/Tx*%
X228462600Y-83267000D03*
%TO.N,Net-(U12-XI)*%
X229044400Y-85317800D03*
X208916500Y-64305000D03*
%TO.N,Net-(U12-XO)*%
X233052100Y-45145000D03*
X210622400Y-54147700D03*
%TO.N,Net-(U12-~{DTR})*%
X230104000Y-85960200D03*
X207457300Y-81535100D03*
%TO.N,Net-(U3-SDA)*%
X218229200Y-77211300D03*
X209206600Y-59070000D03*
X221035300Y-57063500D03*
X211891900Y-76702900D03*
%TO.N,/A4*%
X225128100Y-66249400D03*
X219873200Y-71591600D03*
X215150000Y-73679400D03*
X219471500Y-70836600D03*
%TO.N,/5*%
X215234100Y-69207900D03*
%TO.N,/6*%
X216709200Y-71078700D03*
X208452300Y-48426100D03*
X200939000Y-68449200D03*
X201489400Y-48499300D03*
%TO.N,/9*%
X218291500Y-64013500D03*
X215387600Y-54457400D03*
%TO.N,/10*%
X220547100Y-65471000D03*
X230204400Y-53311100D03*
X224643800Y-47075100D03*
X216563600Y-45818800D03*
%TO.N,/11*%
X220761400Y-66965700D03*
X229855500Y-54698600D03*
%TO.N,/Crystal 2.*%
X221488200Y-73561700D03*
X229375400Y-68714700D03*
%TO.N,Net-(U14-CB)*%
X224289500Y-86936000D03*
X219393900Y-76944000D03*
X228525000Y-69925600D03*
X224565500Y-71160100D03*
X206858600Y-78796400D03*
X219396300Y-75338800D03*
X225358700Y-72790200D03*
X206858600Y-80241600D03*
%TO.N,/3.3v*%
X213350600Y-74630900D03*
X219052200Y-56739200D03*
X227551600Y-73579300D03*
X207522300Y-66969000D03*
X224310400Y-73551900D03*
X203720500Y-74627700D03*
X204175000Y-66955400D03*
X208479700Y-56063500D03*
%TO.N,/Batt +*%
X216009100Y-75313000D03*
X222231200Y-74301500D03*
X231034200Y-66692700D03*
X230042700Y-62491600D03*
X224314600Y-78900100D03*
%TO.N,Net-(D1-K)*%
X230184600Y-58056200D03*
X222137500Y-87008100D03*
X229861000Y-73390500D03*
X221917000Y-45244700D03*
X214656000Y-75762000D03*
X214108700Y-78666200D03*
X221945500Y-46082800D03*
%TO.N,Net-(U2-~{BOOT})*%
X225753300Y-54826500D03*
X228881600Y-76169400D03*
X216901700Y-54456000D03*
X229382800Y-58075000D03*
%TO.N,Net-(U2-CAP)*%
X203848300Y-82975500D03*
X203848300Y-76190100D03*
X207587300Y-75097200D03*
X216454300Y-86551300D03*
X229810900Y-79171900D03*
X215306400Y-88859700D03*
%TO.N,/Reset*%
X218600000Y-58622600D03*
X229794100Y-76958900D03*
X210225000Y-81990200D03*
X206489700Y-72151700D03*
X204163100Y-57865300D03*
%TO.N,/8*%
X221431200Y-80543200D03*
X229003300Y-79479900D03*
%TO.N,Net-(Q2-S)*%
X213159400Y-76967000D03*
X230643900Y-75779700D03*
%TO.N,Net-(Q1-S)*%
X218520300Y-75547700D03*
X229840500Y-72588700D03*
%TO.N,/Crystal 1.*%
X222980100Y-78980000D03*
X229688400Y-66685900D03*
X226955500Y-66518600D03*
%TO.N,/Crystal1*%
X216252600Y-64986500D03*
X208292200Y-64880100D03*
%TO.N,Net-(U3-IN-)*%
X226992800Y-53587100D03*
X230578100Y-56763600D03*
X213919300Y-54457400D03*
X220679500Y-78922900D03*
%TO.N,/A0*%
X223535200Y-58969000D03*
%TO.N,/A1*%
X222666400Y-59843800D03*
%TO.N,/A2*%
X221800000Y-61145000D03*
%TO.N,/A3*%
X220658300Y-61149100D03*
%TO.N,/Crystal2*%
X210577700Y-67357700D03*
X217053800Y-64013500D03*
X214589900Y-67748200D03*
X230319300Y-50746500D03*
%TO.N,/2*%
X203558300Y-62017000D03*
X216200000Y-62707200D03*
%TO.N,/4*%
X213589400Y-62055000D03*
%TO.N,/7*%
X217800000Y-66974400D03*
%TO.N,/12*%
X219886900Y-66111900D03*
%TO.N,/13*%
X202275000Y-67879600D03*
X219071400Y-71600300D03*
%TO.N,Net-(U1-AREF)*%
X221911400Y-64957600D03*
X207875700Y-68709100D03*
%TD*%
%TO.N,/5V*%
D16*
X202460000Y-81500000D02*
X205000000Y-81500000D01*
X213677100Y-88257900D02*
X212642700Y-87223500D01*
X202460000Y-81500000D02*
X200871900Y-79911900D01*
X212642700Y-87223500D02*
X210579000Y-87223500D01*
X202407500Y-71301300D02*
X212632100Y-71301300D01*
X206151700Y-82796200D02*
X206151700Y-81500000D01*
X200871900Y-72836900D02*
X202407500Y-71301300D01*
X230244700Y-81866400D02*
X230739400Y-82361100D01*
X215849900Y-88257900D02*
X213677100Y-88257900D01*
X230739400Y-86200400D02*
X228065300Y-88874500D01*
X219543700Y-88257900D02*
X215849900Y-88257900D01*
X200871900Y-79911900D02*
X200871900Y-72836900D01*
X230739400Y-82361100D02*
X230739400Y-86200400D01*
X228065300Y-88874500D02*
X220160300Y-88874500D01*
X220160300Y-88874500D02*
X219543700Y-88257900D01*
X210579000Y-87223500D02*
X206151700Y-82796200D01*
X202510000Y-77555000D02*
X205050000Y-77555000D01*
X224404100Y-65342900D02*
X226757400Y-62989600D01*
X205000000Y-81500000D02*
X206151700Y-81500000D01*
%TO.N,GND*%
X230275000Y-43055000D02*
X230275000Y-43268000D01*
X202235000Y-89500000D02*
X204775000Y-89500000D01*
X202235000Y-85500000D02*
X204775000Y-85500000D01*
X207505000Y-51055000D02*
X204965000Y-51055000D01*
X215125000Y-51055000D02*
X212585000Y-51055000D01*
X221622400Y-50870800D02*
X220896400Y-51596800D01*
X215666800Y-51596800D02*
X215125000Y-51055000D01*
X222672200Y-50870800D02*
X221622400Y-50870800D01*
X220896400Y-51596800D02*
X215666800Y-51596800D01*
X230275000Y-43268000D02*
X222672200Y-50870800D01*
X210045000Y-51055000D02*
X207505000Y-51055000D01*
X212585000Y-51055000D02*
X210045000Y-51055000D01*
X204965000Y-51055000D02*
X202425000Y-51055000D01*
%TO.N,Net-(J5-D+-PadA6)*%
X211695400Y-82344400D02*
X215260900Y-85909900D01*
X211695400Y-79821400D02*
X211695400Y-82344400D01*
%TO.N,/USB_D-*%
X223520400Y-87040900D02*
X223520400Y-86969800D01*
X225550200Y-87416700D02*
X225429100Y-87537800D01*
X224017300Y-87537800D02*
X223520400Y-87040900D01*
X215456700Y-82114900D02*
X215255200Y-82316400D01*
X218665500Y-82114900D02*
X215456700Y-82114900D01*
X223520400Y-86969800D02*
X218665500Y-82114900D01*
X225429100Y-87537800D02*
X224017300Y-87537800D01*
%TO.N,/USB_D+*%
X225560200Y-77473200D02*
X225136800Y-77896600D01*
X223810500Y-77809600D02*
X223584600Y-77809600D01*
X229426300Y-82339600D02*
X229426300Y-83564000D01*
X229426300Y-83564000D02*
X228789400Y-84200900D01*
X223584600Y-77809600D02*
X223036000Y-78358200D01*
X225136800Y-77896600D02*
X223897500Y-77896600D01*
X223036000Y-78358200D02*
X222252600Y-78358200D01*
X222252600Y-78358200D02*
X222111200Y-78216800D01*
X215279800Y-79018200D02*
X215050100Y-78788500D01*
X225725700Y-77473200D02*
X225560200Y-77473200D01*
X222111200Y-78216800D02*
X220108200Y-78216800D01*
X223897500Y-77896600D02*
X223810500Y-77809600D01*
X220108200Y-78216800D02*
X219306800Y-79018200D01*
X219306800Y-79018200D02*
X215279800Y-79018200D01*
%TO.N,Net-(U3-SCL)*%
X224938300Y-56492700D02*
X224313600Y-56492700D01*
X230226400Y-80175300D02*
X229726800Y-80175300D01*
X231877400Y-56467200D02*
X232852500Y-57442300D01*
X226871300Y-83030800D02*
X221136600Y-83030800D01*
X221136600Y-83030800D02*
X220841300Y-82735500D01*
X228021200Y-81880900D02*
X226871300Y-83030800D01*
X222819000Y-54998100D02*
X221110100Y-54998100D01*
X221930300Y-53548300D02*
X222437600Y-53548300D01*
X228178700Y-52325900D02*
X228034800Y-52182000D01*
X221555500Y-52641800D02*
X221555500Y-53173500D01*
X232852500Y-77049600D02*
X230814300Y-79087800D01*
X221110100Y-54998100D02*
X220910000Y-54798000D01*
X222437600Y-53548300D02*
X223000500Y-52985400D01*
X227771800Y-53438300D02*
X227771800Y-53659200D01*
X228967600Y-80934500D02*
X228844600Y-80934500D01*
X223000500Y-52985400D02*
X227318900Y-52985400D01*
X229726800Y-80175300D02*
X228967600Y-80934500D01*
X228021200Y-81757900D02*
X228021200Y-81880900D01*
X228034800Y-52182000D02*
X222015300Y-52182000D01*
X227318900Y-52985400D02*
X227771800Y-53438300D01*
X224313600Y-56492700D02*
X222819000Y-54998100D01*
X230814300Y-79587400D02*
X230226400Y-80175300D01*
X230814300Y-79087800D02*
X230814300Y-79587400D01*
X221555500Y-53173500D02*
X221930300Y-53548300D01*
X227771800Y-53659200D02*
X224938300Y-56492700D01*
X228844600Y-80934500D02*
X228021200Y-81757900D01*
X232852500Y-57442300D02*
X232852500Y-77049600D01*
X222015300Y-52182000D02*
X221555500Y-52641800D01*
%TO.N,/A5*%
X217671700Y-64253200D02*
X217671700Y-63755100D01*
X228173500Y-53825500D02*
X224837200Y-57161800D01*
X222512400Y-62550800D02*
X222461400Y-62550800D01*
X224837200Y-58242200D02*
X224996800Y-58401800D01*
X222461300Y-62550700D02*
X221380500Y-62550700D01*
X224837200Y-57161800D02*
X224837200Y-58242200D01*
X219293300Y-62133500D02*
X219400000Y-62133500D01*
X227503600Y-52583700D02*
X228173500Y-53253600D01*
X217671700Y-63755100D02*
X219293300Y-62133500D01*
X218125200Y-64706700D02*
X217671700Y-64253200D01*
X221380500Y-62550700D02*
X219224500Y-64706700D01*
X224996800Y-59500500D02*
X223717000Y-60780300D01*
X223717000Y-61346200D02*
X222512400Y-62550800D01*
X218696300Y-70113500D02*
X226584500Y-62225300D01*
X217477600Y-70113500D02*
X218696300Y-70113500D01*
X224996800Y-58401800D02*
X224996800Y-59500500D01*
X228173500Y-53253600D02*
X228173500Y-53825500D01*
X222461400Y-62550800D02*
X222461300Y-62550700D01*
X222548700Y-52583700D02*
X227503600Y-52583700D01*
X222202200Y-52930200D02*
X222548700Y-52583700D01*
X223717000Y-60780300D02*
X223717000Y-61346200D01*
X219224500Y-64706700D02*
X218125200Y-64706700D01*
X226584500Y-62225300D02*
X227359100Y-62225300D01*
%TO.N,Net-(D2-K)*%
X226351500Y-65964200D02*
X218436400Y-73879300D01*
X215679000Y-74356800D02*
X214760500Y-74356800D01*
X226351500Y-65396200D02*
X226351500Y-65964200D01*
X218436400Y-73879300D02*
X216156500Y-73879300D01*
X216156500Y-73879300D02*
X215679000Y-74356800D01*
X214760500Y-74356800D02*
X212569900Y-72166200D01*
X212569900Y-72166200D02*
X212361800Y-72166200D01*
%TO.N,/Rx*%
X229976400Y-56514500D02*
X230329000Y-56161900D01*
X230412600Y-79421100D02*
X230060100Y-79773600D01*
X229251400Y-80082700D02*
X229128400Y-80082700D01*
X230060100Y-79773600D02*
X229561800Y-79773600D01*
X228521600Y-58077300D02*
X229976400Y-56622500D01*
X229976400Y-56622500D02*
X229976400Y-56514500D01*
X230399100Y-78909200D02*
X230412600Y-78922700D01*
X219348300Y-49295400D02*
X220212000Y-48431700D01*
X230412600Y-78922700D02*
X230412600Y-79421100D01*
X229561800Y-79773600D02*
X229561200Y-79773000D01*
X231275700Y-56594300D02*
X231275700Y-56716300D01*
X220500000Y-47280000D02*
X220500000Y-48431700D01*
X226789200Y-82421900D02*
X225515700Y-82421900D01*
X232450800Y-76857400D02*
X230399100Y-78909100D01*
X219619800Y-50995100D02*
X219348300Y-50723600D01*
X228723500Y-59685900D02*
X228521600Y-59484000D01*
X230843300Y-56161900D02*
X231275700Y-56594300D01*
X231275700Y-56716300D02*
X232450800Y-57891400D01*
X228521600Y-59484000D02*
X228521600Y-58077300D01*
X229561100Y-79773000D02*
X229251400Y-80082700D01*
X229561200Y-79773000D02*
X229561100Y-79773000D01*
X230399100Y-78909100D02*
X230399100Y-78909200D01*
X232450800Y-57891400D02*
X232450800Y-76857400D01*
X220212000Y-48431700D02*
X220500000Y-48431700D01*
X230329000Y-56161900D02*
X230843300Y-56161900D01*
X219348300Y-50723600D02*
X219348300Y-49295400D01*
X229128400Y-80082700D02*
X226789200Y-82421900D01*
%TO.N,/Tx*%
X228824600Y-82090500D02*
X228824600Y-82905000D01*
X229177200Y-81737900D02*
X228824600Y-82090500D01*
X228824600Y-82905000D02*
X228462600Y-83267000D01*
X230281200Y-80978700D02*
X229522000Y-81737900D01*
X230761000Y-41901300D02*
X233674800Y-44815100D01*
X229797600Y-41901300D02*
X230761000Y-41901300D01*
X233674800Y-77862900D02*
X230559000Y-80978700D01*
X229123300Y-43803500D02*
X229123300Y-42575600D01*
X229522000Y-81737900D02*
X229177200Y-81737900D01*
X220500000Y-49820000D02*
X223106800Y-49820000D01*
X230559000Y-80978700D02*
X230281200Y-80978700D01*
X223106800Y-49820000D02*
X229123300Y-43803500D01*
X229123300Y-42575600D02*
X229797600Y-41901300D01*
X233674800Y-44815100D02*
X233674800Y-77862900D01*
%TO.N,Net-(U12-XI)*%
X219552300Y-65047000D02*
X219491000Y-65108300D01*
X222445600Y-63103000D02*
X222295000Y-62952400D01*
X229010900Y-81336200D02*
X228422900Y-81924200D01*
X230921000Y-50995700D02*
X228575200Y-53341500D01*
X227841400Y-84114800D02*
X229044400Y-85317800D01*
X217297900Y-65108400D02*
X216494500Y-64305000D01*
X232539800Y-49250000D02*
X232226500Y-49250000D01*
X230392700Y-80577000D02*
X230030800Y-80577000D01*
X232539800Y-49250000D02*
X233227000Y-48562800D01*
X228575200Y-53991800D02*
X225238900Y-57328100D01*
X219491000Y-65108400D02*
X217297900Y-65108400D01*
X225398500Y-59666800D02*
X224118700Y-60946600D01*
X233254200Y-77233000D02*
X231216000Y-79271200D01*
X216494500Y-64305000D02*
X208916500Y-64305000D01*
X233227000Y-48562800D02*
X233227000Y-47572000D01*
X232226500Y-49250000D02*
X230921000Y-50555500D01*
X230921000Y-50555500D02*
X230921000Y-50995700D01*
X224118700Y-60946600D02*
X224118700Y-61512500D01*
X228422900Y-82184900D02*
X227841400Y-82766400D01*
X225238900Y-57328100D02*
X225238900Y-58075900D01*
X228575200Y-53341500D02*
X228575200Y-53991800D01*
X219491000Y-65108300D02*
X219491000Y-65108400D01*
X221546800Y-62952400D02*
X219552300Y-64946900D01*
X233254200Y-49964400D02*
X233254200Y-77233000D01*
X233227000Y-47572000D02*
X232405000Y-46750000D01*
X229271600Y-81336200D02*
X229010900Y-81336200D01*
X225398500Y-58235500D02*
X225398500Y-59666800D01*
X222528200Y-63103000D02*
X222445600Y-63103000D01*
X219552300Y-64946900D02*
X219552300Y-65047000D01*
X230030800Y-80577000D02*
X229271600Y-81336200D01*
X225238900Y-58075900D02*
X225398500Y-58235500D01*
X227841400Y-82766400D02*
X227841400Y-84114800D01*
X231216000Y-79753700D02*
X230392700Y-80577000D01*
X228422900Y-81924200D02*
X228422900Y-82184900D01*
X224118700Y-61512500D02*
X222528200Y-63103000D01*
X232539800Y-49250000D02*
X233254200Y-49964400D01*
X231216000Y-79271200D02*
X231216000Y-79753700D01*
X222295000Y-62952400D02*
X221546800Y-62952400D01*
%TO.N,Net-(U12-XO)*%
X211927600Y-52842500D02*
X210622400Y-54147700D01*
X231582200Y-47427200D02*
X231582200Y-46332500D01*
X232405000Y-48250000D02*
X231582200Y-47427200D01*
X230217800Y-48250000D02*
X227195300Y-51272500D01*
X232769700Y-45145000D02*
X233052100Y-45145000D01*
X232405000Y-48250000D02*
X230217800Y-48250000D01*
X221788700Y-51272500D02*
X220218700Y-52842500D01*
X227195300Y-51272500D02*
X221788700Y-51272500D01*
X220218700Y-52842500D02*
X211927600Y-52842500D01*
X231582200Y-46332500D02*
X232769700Y-45145000D01*
%TO.N,Net-(U12-~{DTR})*%
X211912000Y-85168200D02*
X211912000Y-85168300D01*
X212611700Y-85669200D02*
X214337700Y-87395200D01*
X216281100Y-87796900D02*
X219850900Y-87796900D01*
X214337700Y-87395200D02*
X215879400Y-87395200D01*
X220504600Y-88450600D02*
X227613600Y-88450600D01*
X219850900Y-87796900D02*
X220504600Y-88450600D01*
X215879400Y-87395200D02*
X216281100Y-87796900D01*
X212611700Y-85593900D02*
X212611700Y-85669200D01*
X212186100Y-85168300D02*
X212611700Y-85593900D01*
X207457300Y-81535100D02*
X208278900Y-81535100D01*
X227613600Y-88450600D02*
X230104000Y-85960200D01*
X211912000Y-85168300D02*
X212186100Y-85168300D01*
X208278900Y-81535100D02*
X211912000Y-85168200D01*
%TO.N,Net-(U3-SDA)*%
X215827100Y-77010600D02*
X215769100Y-76952600D01*
X218229200Y-77211300D02*
X218028500Y-77010600D01*
X213975000Y-76363700D02*
X213574900Y-75963600D01*
X215072700Y-76363700D02*
X213975000Y-76363700D01*
X215661600Y-76952600D02*
X215072700Y-76363700D01*
X209206600Y-59070000D02*
X209363200Y-59226600D01*
X212631200Y-75963600D02*
X211891900Y-76702900D01*
X215769100Y-76952600D02*
X215661600Y-76952600D01*
X213574900Y-75963600D02*
X212631200Y-75963600D01*
X218028500Y-77010600D02*
X215827100Y-77010600D01*
X209363200Y-59226600D02*
X218872200Y-59226600D01*
X218872200Y-59226600D02*
X221035300Y-57063500D01*
%TO.N,/A4*%
X215551600Y-73277800D02*
X218244800Y-73277800D01*
X215150000Y-73679400D02*
X215551600Y-73277800D01*
X219873200Y-71649400D02*
X219873200Y-71591600D01*
X225128100Y-66249400D02*
X224058700Y-66249400D01*
X218244800Y-73277800D02*
X219873200Y-71649400D01*
X224058700Y-66249400D02*
X219471500Y-70836600D01*
%TO.N,/5*%
X204008700Y-67662700D02*
X205907200Y-67662700D01*
X200486000Y-65605000D02*
X202142000Y-67261000D01*
X202142000Y-67261000D02*
X203607000Y-67261000D01*
X207578900Y-69334400D02*
X215107600Y-69334400D01*
X205907200Y-67662700D02*
X207578900Y-69334400D01*
X202605200Y-44644800D02*
X201754500Y-44644800D01*
X200486000Y-45913300D02*
X200486000Y-65605000D01*
X203607000Y-67261000D02*
X204008700Y-67662700D01*
X204695000Y-42555000D02*
X202605200Y-44644800D01*
X215107600Y-69334400D02*
X215234100Y-69207900D01*
X201754500Y-44644800D02*
X200486000Y-45913300D01*
%TO.N,/6*%
X201952200Y-70746500D02*
X207022300Y-70746500D01*
X200939000Y-68449200D02*
X200939000Y-69733300D01*
X207022300Y-70746500D02*
X207083700Y-70685100D01*
X208379100Y-48499300D02*
X208452300Y-48426100D01*
X213505700Y-70685100D02*
X213899300Y-71078700D01*
X207083700Y-70685100D02*
X213505700Y-70685100D01*
X200939000Y-69733300D02*
X201952200Y-70746500D01*
X201489400Y-48499300D02*
X208379100Y-48499300D01*
X213899300Y-71078700D02*
X216709200Y-71078700D01*
%TO.N,/9*%
X224595100Y-58604300D02*
X224595100Y-59334200D01*
X219357700Y-55057800D02*
X219699700Y-55399800D01*
X223315300Y-61179900D02*
X222346200Y-62149000D01*
X221390600Y-55399800D02*
X224595100Y-58604300D01*
X219699700Y-55399800D02*
X221390600Y-55399800D01*
X221214200Y-62149000D02*
X220812500Y-62550700D01*
X216038700Y-54457400D02*
X216639100Y-55057800D01*
X220812500Y-62550700D02*
X220337300Y-62550700D01*
X216639100Y-55057800D02*
X219357700Y-55057800D01*
X224595100Y-59334200D02*
X223315300Y-60614000D01*
X223315300Y-60614000D02*
X223315300Y-61179900D01*
X222346200Y-62149000D02*
X221214200Y-62149000D01*
X215387600Y-54457400D02*
X216038700Y-54457400D01*
X220337300Y-62550700D02*
X218874500Y-64013500D01*
X218874500Y-64013500D02*
X218291500Y-64013500D01*
%TO.N,/10*%
X224963400Y-61320500D02*
X224963400Y-61237900D01*
X222207100Y-44638400D02*
X217744000Y-44638400D01*
X221737800Y-64280300D02*
X222486900Y-64280300D01*
X230204400Y-53498700D02*
X230204400Y-53311100D01*
X224643800Y-47075100D02*
X222207100Y-44638400D01*
X226201900Y-57501200D02*
X230204400Y-53498700D01*
X226201900Y-59999400D02*
X226201900Y-57501200D01*
X224963400Y-61237900D02*
X226201900Y-59999400D01*
X217744000Y-44638400D02*
X216563600Y-45818800D01*
X225063500Y-61420600D02*
X224963400Y-61320500D01*
X220547100Y-65471000D02*
X221737800Y-64280300D01*
X225063500Y-61703700D02*
X225063500Y-61420600D01*
X222486900Y-64280300D02*
X225063500Y-61703700D01*
%TO.N,/11*%
X227021400Y-57532700D02*
X229855500Y-54698600D01*
X227021400Y-60705700D02*
X227021400Y-57532700D01*
X220761400Y-66965700D02*
X227021400Y-60705700D01*
%TO.N,/Crystal 2.*%
X227560200Y-67847800D02*
X226986200Y-67847800D01*
X228521600Y-63963800D02*
X227560200Y-64925200D01*
X229375400Y-68714700D02*
X228427100Y-68714700D01*
X226986200Y-67847800D02*
X221488200Y-73345800D01*
X221488200Y-73345800D02*
X221488200Y-73561700D01*
X229574700Y-56348200D02*
X229574700Y-56456200D01*
X229574700Y-56456200D02*
X228119900Y-57911000D01*
X230162700Y-55760200D02*
X229574700Y-56348200D01*
X228119900Y-57911000D02*
X228119900Y-59933100D01*
X227560200Y-64925200D02*
X227560200Y-67847800D01*
X228119900Y-59933100D02*
X228521600Y-60334800D01*
X232405000Y-55250000D02*
X231894800Y-55760200D01*
X231894800Y-55760200D02*
X230162700Y-55760200D01*
X228521600Y-60334800D02*
X228521600Y-63963800D01*
X228427100Y-68714700D02*
X227560200Y-67847800D01*
%TO.N,Net-(U14-CB)*%
X212557700Y-76919800D02*
X210681100Y-78796400D01*
X213764400Y-76765400D02*
X213761100Y-76762100D01*
X225822400Y-88039400D02*
X226190800Y-87671000D01*
X219393900Y-76944000D02*
X218524800Y-77813100D01*
X207586500Y-80241600D02*
X212111500Y-84766600D01*
X217250100Y-77412300D02*
X215660800Y-77412300D01*
X215660800Y-77412300D02*
X215602800Y-77354300D01*
X226190800Y-87192900D02*
X225810200Y-86812300D01*
X223380500Y-74571300D02*
X222531100Y-75420700D01*
X223380500Y-73630600D02*
X223380500Y-74571300D01*
X225157200Y-72588700D02*
X224422400Y-72588700D01*
X215602800Y-77354300D02*
X215495300Y-77354300D01*
X213761100Y-76762100D02*
X213761100Y-76717800D01*
X222531100Y-75420700D02*
X219478200Y-75420700D01*
X220388800Y-87395200D02*
X221033000Y-88039400D01*
X218524800Y-77813100D02*
X217650900Y-77813100D01*
X224413200Y-86812300D02*
X224289500Y-86936000D01*
X206858600Y-80241600D02*
X207586500Y-80241600D01*
X212910300Y-76365300D02*
X212557700Y-76717900D01*
X216205200Y-87153000D02*
X216772500Y-87153000D01*
X217014700Y-87395200D02*
X220388800Y-87395200D01*
X225810200Y-86812300D02*
X224413200Y-86812300D01*
X226190800Y-87671000D02*
X226190800Y-87192900D01*
X225358700Y-72790200D02*
X225157200Y-72588700D01*
X228525000Y-69925600D02*
X225800000Y-69925600D01*
X219478200Y-75420700D02*
X219396300Y-75338800D01*
X210681100Y-78796400D02*
X206858600Y-78796400D01*
X225800000Y-69925600D02*
X224565500Y-71160100D01*
X216045700Y-86993500D02*
X216205200Y-87153000D01*
X215495300Y-77354300D02*
X214906400Y-76765400D01*
X212557700Y-76717900D02*
X212557700Y-76919800D01*
X213761100Y-76717800D02*
X213408600Y-76365300D01*
X212352400Y-84766600D02*
X214579300Y-86993500D01*
X214906400Y-76765400D02*
X213764400Y-76765400D01*
X224422400Y-72588700D02*
X223380500Y-73630600D01*
X221033000Y-88039400D02*
X225822400Y-88039400D01*
X212111500Y-84766600D02*
X212352400Y-84766600D01*
X213408600Y-76365300D02*
X212910300Y-76365300D01*
X216772500Y-87153000D02*
X217014700Y-87395200D01*
X214579300Y-86993500D02*
X216045700Y-86993500D01*
X217650900Y-77813100D02*
X217250100Y-77412300D01*
%TO.N,/3.3v*%
X224310400Y-74221700D02*
X222591500Y-75940600D01*
X213215200Y-74495500D02*
X206902700Y-74495500D01*
X213879900Y-75160200D02*
X213350600Y-74630900D01*
X215994200Y-76149200D02*
X215005200Y-75160200D01*
X206902700Y-74495500D02*
X206705300Y-74692900D01*
X206705300Y-74692900D02*
X203785700Y-74692900D01*
X204175000Y-66955400D02*
X204188600Y-66969000D01*
X209155400Y-56739200D02*
X219052200Y-56739200D01*
X224337800Y-73579300D02*
X224310400Y-73551900D01*
X218978500Y-75940600D02*
X218711900Y-76207200D01*
X227551600Y-73579300D02*
X224337800Y-73579300D01*
X203785700Y-74692900D02*
X203720500Y-74627700D01*
X213350600Y-74630900D02*
X213215200Y-74495500D01*
X216101700Y-76149200D02*
X215994200Y-76149200D01*
X204188600Y-66969000D02*
X207522300Y-66969000D01*
X222591500Y-75940600D02*
X218978500Y-75940600D01*
X215005200Y-75160200D02*
X213879900Y-75160200D01*
X218711900Y-76207200D02*
X216159700Y-76207200D01*
X208479700Y-56063500D02*
X209155400Y-56739200D01*
X224310400Y-73551900D02*
X224310400Y-74221700D01*
X216159700Y-76207200D02*
X216101700Y-76149200D01*
%TO.N,/Batt +*%
X227735000Y-43055000D02*
X226583300Y-43055000D01*
X212355000Y-47055000D02*
X209815000Y-47055000D01*
X229558000Y-63495400D02*
X227985900Y-65067500D01*
X227516200Y-71785300D02*
X224087700Y-71785300D01*
X226058300Y-78477500D02*
X226059200Y-78476600D01*
X225269300Y-78900100D02*
X225691900Y-78477500D01*
X213737400Y-73901700D02*
X214594200Y-74758500D01*
X229636200Y-78125900D02*
X230026100Y-78125900D01*
X206201700Y-73500000D02*
X206603400Y-73901700D01*
X205050000Y-73500000D02*
X206201700Y-73500000D01*
X225501600Y-44136700D02*
X217394900Y-44136700D01*
X226542000Y-78075800D02*
X228420600Y-78075800D01*
X230042700Y-62491600D02*
X229558000Y-62976300D01*
X224087700Y-71785300D02*
X222231200Y-73641800D01*
X214895000Y-47055000D02*
X212355000Y-47055000D01*
X202460000Y-69555000D02*
X205000000Y-69555000D01*
X202510000Y-73500000D02*
X205050000Y-73500000D01*
X207275000Y-47055000D02*
X204735000Y-47055000D01*
X227985900Y-65067500D02*
X227985900Y-66970200D01*
X227985900Y-66970200D02*
X229106700Y-68091000D01*
X217394900Y-44136700D02*
X214895000Y-46636600D01*
X226583300Y-43055000D02*
X225501600Y-44136700D01*
X226141200Y-78476600D02*
X226542000Y-78075800D01*
X228421600Y-78074800D02*
X229585100Y-78074800D01*
X231647400Y-76524800D02*
X231647400Y-67305900D01*
X222231200Y-73641800D02*
X222231200Y-74301500D01*
X229989000Y-68439100D02*
X229989000Y-69312500D01*
X230026200Y-78126000D02*
X230046200Y-78126000D01*
X229989000Y-69312500D02*
X227516200Y-71785300D01*
X229640900Y-68091000D02*
X229989000Y-68439100D01*
X226059200Y-78476600D02*
X226141200Y-78476600D01*
X215454600Y-74758500D02*
X216009100Y-75313000D01*
X225691900Y-78477500D02*
X226058300Y-78477500D01*
X209815000Y-47055000D02*
X207275000Y-47055000D01*
X214895000Y-46636600D02*
X214895000Y-47055000D01*
X230026100Y-78125900D02*
X230026200Y-78126000D01*
X217020600Y-74301500D02*
X216009100Y-75313000D01*
X229585100Y-78074800D02*
X229636200Y-78125900D01*
X214594200Y-74758500D02*
X215454600Y-74758500D01*
X230046200Y-78126000D02*
X231647400Y-76524800D01*
X206603400Y-73901700D02*
X213737400Y-73901700D01*
X228420600Y-78075800D02*
X228421600Y-78074800D01*
X229106700Y-68091000D02*
X229640900Y-68091000D01*
X224314600Y-78900100D02*
X225269300Y-78900100D01*
X204735000Y-47055000D02*
X202195000Y-47055000D01*
X222231200Y-74301500D02*
X217020600Y-74301500D01*
X229558000Y-62976300D02*
X229558000Y-63495400D01*
X231647400Y-67305900D02*
X231034200Y-66692700D01*
%TO.N,Net-(D1-K)*%
X228685000Y-67101300D02*
X229273000Y-67689300D01*
X218878200Y-76608900D02*
X215993400Y-76608900D01*
X228387600Y-66770800D02*
X228685000Y-67068200D01*
X221945500Y-45273200D02*
X221945500Y-46082800D01*
X229273000Y-67689300D02*
X229843000Y-67689300D01*
X219144800Y-76342300D02*
X218878200Y-76608900D01*
X219810100Y-76509300D02*
X219643100Y-76342300D01*
X215088200Y-83599700D02*
X219014300Y-83599700D01*
X219643100Y-76342300D02*
X219144800Y-76342300D01*
X229938400Y-73390500D02*
X229861000Y-73390500D01*
X230442300Y-68288600D02*
X230442300Y-72886600D01*
X214021900Y-82533400D02*
X215088200Y-83599700D01*
X221917000Y-45244700D02*
X221945500Y-45273200D01*
X220274200Y-85144800D02*
X222137500Y-87008100D01*
X230184600Y-58056200D02*
X230644400Y-58516000D01*
X230644400Y-62977000D02*
X228387600Y-65233800D01*
X229861000Y-73390500D02*
X227183400Y-76068100D01*
X224702800Y-76509300D02*
X219810100Y-76509300D01*
X214108700Y-78666200D02*
X214021900Y-78753000D01*
X215993400Y-76608900D02*
X215935400Y-76550900D01*
X227183400Y-76068100D02*
X225144000Y-76068100D01*
X214021900Y-78753000D02*
X214021900Y-82533400D01*
X228387600Y-65233800D02*
X228387600Y-66770800D01*
X215239000Y-75962000D02*
X214856000Y-75962000D01*
X215935400Y-76550900D02*
X215827900Y-76550900D01*
X220274200Y-84859600D02*
X220274200Y-85144800D01*
X214856000Y-75962000D02*
X214656000Y-75762000D01*
X230644400Y-58516000D02*
X230644400Y-62977000D01*
X215827900Y-76550900D02*
X215239000Y-75962000D01*
X229843000Y-67689300D02*
X230442300Y-68288600D01*
X230442300Y-72886600D02*
X229938400Y-73390500D01*
X219014300Y-83599700D02*
X220274200Y-84859600D01*
X225144000Y-76068100D02*
X224702800Y-76509300D01*
X228685000Y-67068200D02*
X228685000Y-67101300D01*
%TO.N,Net-(U2-~{BOOT})*%
X229086700Y-66935000D02*
X229439300Y-67287600D01*
X229382800Y-57990800D02*
X229937500Y-57436100D01*
X229937500Y-57436100D02*
X230415400Y-57436100D01*
X217161400Y-54196300D02*
X216901700Y-54456000D01*
X229382800Y-58075000D02*
X229382800Y-57990800D01*
X229086700Y-66268600D02*
X229086700Y-66935000D01*
X221159200Y-54196300D02*
X217161400Y-54196300D01*
X231046100Y-64309200D02*
X229086700Y-66268600D01*
X225481200Y-54554400D02*
X221517300Y-54554400D01*
X225753300Y-54826500D02*
X225481200Y-54554400D01*
X230844000Y-74207000D02*
X228881600Y-76169400D01*
X229439300Y-67287600D02*
X230062700Y-67287600D01*
X230062700Y-67287600D02*
X230844000Y-68068900D01*
X230844000Y-68068900D02*
X230844000Y-74207000D01*
X231046100Y-58066800D02*
X231046100Y-64309200D01*
X230415400Y-57436100D02*
X231046100Y-58066800D01*
X221517300Y-54554400D02*
X221159200Y-54196300D01*
%TO.N,Net-(U2-CAP)*%
X216939000Y-86551300D02*
X217381200Y-86993500D01*
X218457900Y-82557900D02*
X217866900Y-83148900D01*
X221519000Y-79762400D02*
X221740100Y-79983500D01*
X217381200Y-86993500D02*
X221216600Y-86993500D01*
X225770300Y-79983500D02*
X226874600Y-78879200D01*
X211309700Y-88859700D02*
X215306400Y-88859700D01*
X229252500Y-78878200D02*
X229546200Y-79171900D01*
X216454300Y-86551300D02*
X216939000Y-86551300D01*
X222667000Y-87634900D02*
X223071600Y-87230300D01*
X217866900Y-83148900D02*
X215205400Y-83148900D01*
X216902400Y-79762400D02*
X221519000Y-79762400D01*
X221858000Y-87634900D02*
X222667000Y-87634900D01*
X221216600Y-86993500D02*
X221858000Y-87634900D01*
X206494400Y-76190100D02*
X207587300Y-75097200D01*
X229546200Y-79171900D02*
X229810900Y-79171900D01*
X218540500Y-82557900D02*
X218457900Y-82557900D01*
X221740100Y-79983500D02*
X225770300Y-79983500D01*
X203848300Y-76190100D02*
X206494400Y-76190100D01*
X228753200Y-78879200D02*
X228754200Y-78878200D01*
X214464900Y-82199900D02*
X216902400Y-79762400D01*
X203848300Y-82975500D02*
X205425500Y-82975500D01*
X215205400Y-83148900D02*
X214464900Y-82408400D01*
X226874600Y-78879200D02*
X228753200Y-78879200D01*
X228754200Y-78878200D02*
X229252500Y-78878200D01*
X223071600Y-87089000D02*
X218540500Y-82557900D01*
X214464900Y-82408400D02*
X214464900Y-82199900D01*
X223071600Y-87230300D02*
X223071600Y-87089000D01*
X205425500Y-82975500D02*
X211309700Y-88859700D01*
%TO.N,/Reset*%
X222512900Y-77815100D02*
X219941900Y-77815100D01*
X210225000Y-81990200D02*
X210225000Y-80388600D01*
X201207200Y-45848200D02*
X200887700Y-46167700D01*
X215820200Y-78247300D02*
X215359800Y-78247300D01*
X204834800Y-55937200D02*
X204834800Y-56264400D01*
X225974900Y-76871500D02*
X225476600Y-76871500D01*
X215162600Y-78157700D02*
X215036700Y-78031800D01*
X217588400Y-42555000D02*
X214295200Y-45848200D01*
X225476600Y-76871500D02*
X225124000Y-77224100D01*
X226327400Y-77224000D02*
X225974900Y-76871500D01*
X204834800Y-56264400D02*
X204834800Y-57193600D01*
X214295200Y-45848200D02*
X201207200Y-45848200D01*
X226375700Y-77272400D02*
X226327400Y-77224100D01*
X210188000Y-58622600D02*
X218600000Y-58622600D01*
X207829800Y-56264400D02*
X210188000Y-58622600D01*
X202173500Y-72151700D02*
X201309900Y-73015300D01*
X219140500Y-78616500D02*
X216189400Y-78616500D01*
X226327400Y-77224100D02*
X226327400Y-77224000D01*
X219775000Y-42555000D02*
X217588400Y-42555000D01*
X212581800Y-78031800D02*
X210225000Y-80388600D01*
X215036700Y-78031800D02*
X212581800Y-78031800D01*
X204834800Y-57193600D02*
X204163100Y-57865300D01*
X228089000Y-77271400D02*
X228088000Y-77272400D01*
X204834800Y-56264400D02*
X207829800Y-56264400D01*
X216189400Y-78616500D02*
X215820200Y-78247300D01*
X200887700Y-46167700D02*
X200887700Y-51990100D01*
X225124000Y-77224200D02*
X225025800Y-77322400D01*
X209317600Y-79481200D02*
X210225000Y-80388600D01*
X200887700Y-51990100D02*
X204834800Y-55937200D01*
X201309900Y-78034000D02*
X202757100Y-79481200D01*
X225025800Y-77322400D02*
X223005600Y-77322400D01*
X223005600Y-77322400D02*
X222512900Y-77815100D01*
X228088000Y-77272400D02*
X226375700Y-77272400D01*
X219941900Y-77815100D02*
X219140500Y-78616500D01*
X229794100Y-76958900D02*
X229481600Y-77271400D01*
X215359800Y-78247300D02*
X215270200Y-78157700D01*
X225124000Y-77224100D02*
X225124000Y-77224200D01*
X202757100Y-79481200D02*
X209317600Y-79481200D01*
X229481600Y-77271400D02*
X228089000Y-77271400D01*
X201309900Y-73015300D02*
X201309900Y-78034000D01*
X206489700Y-72151700D02*
X202173500Y-72151700D01*
X215270200Y-78157700D02*
X215162600Y-78157700D01*
%TO.N,/8*%
X227940000Y-80543200D02*
X229003300Y-79479900D01*
X221431200Y-80543200D02*
X227940000Y-80543200D01*
%TO.N,Net-(Q2-S)*%
X215526100Y-77845600D02*
X215436500Y-77756000D01*
X226542100Y-76870700D02*
X226141200Y-76469800D01*
X213359500Y-77167100D02*
X213159400Y-76967000D01*
X218974200Y-78214800D02*
X216355700Y-78214800D01*
X226141200Y-76469800D02*
X225310300Y-76469800D01*
X227922700Y-76869700D02*
X227921700Y-76870700D01*
X214740100Y-77167100D02*
X213359500Y-77167100D01*
X230643900Y-75779700D02*
X230122500Y-75779700D01*
X216355700Y-78214800D02*
X215986500Y-77845600D01*
X230122500Y-75779700D02*
X229032500Y-76869700D01*
X227921700Y-76870700D02*
X226542100Y-76870700D01*
X225310300Y-76469800D02*
X224859400Y-76920700D01*
X215986500Y-77845600D02*
X215526100Y-77845600D01*
X229032500Y-76869700D02*
X227922700Y-76869700D01*
X220268300Y-76920700D02*
X218974200Y-78214800D01*
X215329000Y-77756000D02*
X214740100Y-77167100D01*
X215436500Y-77756000D02*
X215329000Y-77756000D01*
X224859400Y-76920700D02*
X220268300Y-76920700D01*
%TO.N,Net-(Q1-S)*%
X218520400Y-75547700D02*
X218520300Y-75547700D01*
X222978800Y-73462200D02*
X222978800Y-74405000D01*
X222978800Y-74405000D02*
X222381700Y-75002100D01*
X219910500Y-75002100D02*
X219645500Y-74737100D01*
X222381700Y-75002100D02*
X219910500Y-75002100D01*
X219645500Y-74737100D02*
X219147200Y-74737100D01*
X224256100Y-72187000D02*
X223489800Y-72953300D01*
X229438800Y-72187000D02*
X224256100Y-72187000D01*
X223489800Y-72953300D02*
X223487700Y-72953300D01*
X219147200Y-74737100D02*
X218520400Y-75363900D01*
X229840500Y-72588700D02*
X229438800Y-72187000D01*
X223487700Y-72953300D02*
X222978800Y-73462200D01*
X218520400Y-75363900D02*
X218520400Y-75547700D01*
%TO.N,/Crystal 1.*%
X227960800Y-63387700D02*
X227960800Y-61976100D01*
X230063900Y-66685900D02*
X229688400Y-66685900D01*
X223697500Y-78264700D02*
X223697600Y-78264700D01*
X225974900Y-78074900D02*
X226327400Y-77722400D01*
X225525600Y-78075800D02*
X225892000Y-78075800D01*
X223697600Y-78264700D02*
X223731200Y-78298300D01*
X225892900Y-78074900D02*
X225974900Y-78074900D01*
X226955500Y-64393000D02*
X227960800Y-63387700D01*
X226375600Y-77674100D02*
X228254300Y-77674100D01*
X230054600Y-55300300D02*
X230854700Y-55300300D01*
X227718200Y-57636700D02*
X230054600Y-55300300D01*
X229802500Y-77724200D02*
X229880000Y-77724200D01*
X230854700Y-55300300D02*
X232405000Y-53750000D01*
X225892000Y-78075800D02*
X225892900Y-78074900D01*
X223731200Y-78298300D02*
X225303100Y-78298300D01*
X226327400Y-77722300D02*
X226375600Y-77674100D01*
X229880000Y-77724200D02*
X231245700Y-76358500D01*
X226327400Y-77722400D02*
X226327400Y-77722300D01*
X228255300Y-77673100D02*
X229751400Y-77673100D01*
X222982200Y-78980000D02*
X223697500Y-78264700D01*
X227960800Y-61976100D02*
X227718200Y-61733500D01*
X227718200Y-61733500D02*
X227718200Y-57636700D01*
X229751400Y-77673100D02*
X229802500Y-77724200D01*
X231245700Y-76358500D02*
X231245700Y-67867700D01*
X222980100Y-78980000D02*
X222982200Y-78980000D01*
X225303100Y-78298300D02*
X225525600Y-78075800D01*
X226955500Y-66518600D02*
X226955500Y-64393000D01*
X228254300Y-77674100D02*
X228255300Y-77673100D01*
X231245700Y-67867700D02*
X230063900Y-66685900D01*
%TO.N,/Crystal1*%
X219729400Y-65510100D02*
X216776200Y-65510100D01*
X219954000Y-65213300D02*
X219945400Y-65221900D01*
X208398600Y-64986500D02*
X208292200Y-64880100D01*
X219954000Y-65113200D02*
X219954000Y-65213300D01*
X216252600Y-64986500D02*
X208398600Y-64986500D01*
X219945400Y-65221900D02*
X219945400Y-65294100D01*
X232405000Y-50250000D02*
X229378600Y-53276400D01*
X225800200Y-59833100D02*
X224520400Y-61112900D01*
X219945400Y-65294100D02*
X219729400Y-65510100D01*
X216776200Y-65510100D02*
X216252600Y-64986500D01*
X229378600Y-53756400D02*
X225640600Y-57494400D01*
X225640600Y-57909600D02*
X225800200Y-58069200D01*
X224637000Y-61562200D02*
X222528200Y-63671000D01*
X222528200Y-63671000D02*
X222445600Y-63671000D01*
X222445600Y-63671000D02*
X222128700Y-63354100D01*
X224637000Y-61562100D02*
X224637000Y-61562200D01*
X222128700Y-63354100D02*
X221713100Y-63354100D01*
X221713100Y-63354100D02*
X219954000Y-65113200D01*
X229378600Y-53276400D02*
X229378600Y-53756400D01*
X224520400Y-61445500D02*
X224637000Y-61562100D01*
X225640600Y-57494400D02*
X225640600Y-57909600D01*
X225800200Y-58069200D02*
X225800200Y-59833100D01*
X224520400Y-61112900D02*
X224520400Y-61445500D01*
%TO.N,Net-(U3-IN-)*%
X221325500Y-53794600D02*
X214582100Y-53794600D01*
X226225500Y-78878300D02*
X226307500Y-78878300D01*
X232049100Y-76691100D02*
X232049100Y-58234600D01*
X221247500Y-78922900D02*
X221906400Y-79581800D01*
X230115000Y-78625100D02*
X230115100Y-78625100D01*
X229469900Y-78527600D02*
X229859800Y-78527600D01*
X221906400Y-79581800D02*
X225522000Y-79581800D01*
X229859800Y-78527600D02*
X229902400Y-78570200D01*
X225522000Y-79581800D02*
X226225500Y-78878300D01*
X229902400Y-78570200D02*
X230060100Y-78570200D01*
X228587900Y-78476500D02*
X229418800Y-78476500D01*
X226992800Y-53587100D02*
X226628000Y-53951900D01*
X226628000Y-53951900D02*
X221482800Y-53951900D01*
X221482800Y-53951900D02*
X221325500Y-53794600D01*
X230115100Y-78625100D02*
X232049100Y-76691100D01*
X226307500Y-78878300D02*
X226708300Y-78477500D01*
X228586900Y-78477500D02*
X228587900Y-78476500D01*
X214582100Y-53794600D02*
X213919300Y-54457400D01*
X220679500Y-78922900D02*
X221247500Y-78922900D01*
X230060100Y-78570200D02*
X230115000Y-78625100D01*
X229418800Y-78476500D02*
X229469900Y-78527600D01*
X232049100Y-58234600D02*
X230578100Y-56763600D01*
X226708300Y-78477500D02*
X228586900Y-78477500D01*
%TO.N,/A0*%
X216582800Y-56137500D02*
X219301400Y-56137500D01*
X208007600Y-55460900D02*
X215906200Y-55460900D01*
X206275000Y-54880000D02*
X207426700Y-54880000D01*
X219301400Y-56137500D02*
X219426800Y-56262900D01*
X223535200Y-58702300D02*
X223535200Y-58969000D01*
X221095800Y-56262900D02*
X223535200Y-58702300D01*
X215906200Y-55460900D02*
X216582800Y-56137500D01*
X207426700Y-54880000D02*
X208007600Y-55460900D01*
X219426800Y-56262900D02*
X221095800Y-56262900D01*
%TO.N,/A1*%
X208533200Y-59678200D02*
X222500800Y-59678200D01*
X206275000Y-57420000D02*
X208533200Y-59678200D01*
X222500800Y-59678200D02*
X222666400Y-59843800D01*
%TO.N,/A2*%
X220735000Y-60080000D02*
X221800000Y-61145000D01*
X206395000Y-60080000D02*
X220735000Y-60080000D01*
X206275000Y-59960000D02*
X206395000Y-60080000D01*
%TO.N,/A3*%
X206275000Y-62500000D02*
X206446700Y-62671700D01*
X206446700Y-62671700D02*
X215157900Y-62671700D01*
X216703300Y-61126300D02*
X220635500Y-61126300D01*
X215157900Y-62671700D02*
X216703300Y-61126300D01*
X220635500Y-61126300D02*
X220658300Y-61149100D01*
%TO.N,/Crystal2*%
X216072500Y-55059200D02*
X216472800Y-55459500D01*
X218464700Y-55459500D02*
X218741000Y-55735800D01*
X216472800Y-55459500D02*
X218464700Y-55459500D01*
X220445100Y-61821700D02*
X220151400Y-61528000D01*
X220151400Y-61528000D02*
X219125100Y-61528000D01*
X213262100Y-54706000D02*
X213615300Y-55059200D01*
X213262100Y-54263800D02*
X213262100Y-54706000D01*
X219467700Y-55735800D02*
X219533400Y-55801500D01*
X222913600Y-60447700D02*
X222913600Y-60942900D01*
X220385000Y-53244200D02*
X214281700Y-53244200D01*
X224193400Y-58770600D02*
X224193400Y-59167900D01*
X221913700Y-51715500D02*
X220385000Y-53244200D01*
X217053800Y-63599300D02*
X217053800Y-64013500D01*
X219125100Y-61528000D02*
X217053800Y-63599300D01*
X218741000Y-55735800D02*
X219467700Y-55735800D01*
X220890900Y-61821700D02*
X220445100Y-61821700D01*
X224193400Y-59167900D02*
X222913600Y-60447700D01*
X214281700Y-53244200D02*
X213262100Y-54263800D01*
X222109200Y-61747300D02*
X220965300Y-61747300D01*
X222913600Y-60942900D02*
X222109200Y-61747300D01*
X213615300Y-55059200D02*
X216072500Y-55059200D01*
X230319300Y-50746500D02*
X229350300Y-51715500D01*
X221224300Y-55801500D02*
X224193400Y-58770600D01*
X210968200Y-67748200D02*
X210577700Y-67357700D01*
X220965300Y-61747300D02*
X220890900Y-61821700D01*
X214589900Y-67748200D02*
X210968200Y-67748200D01*
X219533400Y-55801500D02*
X221224300Y-55801500D01*
X229350300Y-51715500D02*
X221913700Y-51715500D01*
%TO.N,/2*%
X215209900Y-63697300D02*
X216200000Y-62707200D01*
X205238600Y-63697300D02*
X215209900Y-63697300D01*
X203558300Y-62017000D02*
X205238600Y-63697300D01*
%TO.N,/4*%
X212764400Y-61230000D02*
X205390000Y-61230000D01*
X205390000Y-61230000D02*
X202275000Y-58115000D01*
X213589400Y-62055000D02*
X212764400Y-61230000D01*
%TO.N,/7*%
X202706000Y-64465000D02*
X201854500Y-64465000D01*
X204608300Y-66367300D02*
X202706000Y-64465000D01*
X217800000Y-66974400D02*
X217192900Y-66367300D01*
X201092600Y-63703100D02*
X201092600Y-61837400D01*
X201092600Y-61837400D02*
X202275000Y-60655000D01*
X201854500Y-64465000D02*
X201092600Y-63703100D01*
X217192900Y-66367300D02*
X204608300Y-66367300D01*
%TO.N,/12*%
X202275000Y-63195000D02*
X204991800Y-65911800D01*
X219686800Y-65911800D02*
X219886900Y-66111900D01*
X204991800Y-65911800D02*
X219686800Y-65911800D01*
%TO.N,/13*%
X205669900Y-68064400D02*
X207405600Y-69800100D01*
X213770900Y-69800100D02*
X214380700Y-70409900D01*
X216923200Y-70409900D02*
X218113600Y-71600300D01*
X218113600Y-71600300D02*
X219071400Y-71600300D01*
X214380700Y-70409900D02*
X216923200Y-70409900D01*
X202275000Y-67879600D02*
X202459800Y-68064400D01*
X202459800Y-68064400D02*
X205669900Y-68064400D01*
X207405600Y-69800100D02*
X213770900Y-69800100D01*
%TO.N,Net-(U1-AREF)*%
X207875700Y-68709100D02*
X208234900Y-68349900D01*
X218519100Y-68349900D02*
X221911400Y-64957600D01*
X208234900Y-68349900D02*
X218519100Y-68349900D01*
%TD*%
M02*
