M48
; DRILL file KiCad 10.0.5 date 2026-08-06T13:57:30
; FORMAT={-:-/ absolute / metric / decimal}
; #@! TF.CreationDate,2026-08-06T13:57:30-04:00
; #@! TF.GenerationSoftware,Kicad,Pcbnew,10.0.5
; #@! TF.FileFunction,Plated,1,2,PTH
FMAT,2
METRIC
; #@! TA.AperFunction,Plated,PTH,ViaDrill
T1C0.300
; #@! TA.AperFunction,Plated,PTH,ComponentDrill
T2C0.500
; #@! TA.AperFunction,Plated,PTH,ComponentDrill
T3C0.600
; #@! TA.AperFunction,Plated,PTH,ComponentDrill
T4C1.000
%
G90
G05
T1
X200.939Y-68.449
X201.489Y-48.499
X202.275Y-67.88
X203.558Y-62.017
X203.72Y-74.628
X203.848Y-76.19
X203.848Y-82.975
X204.163Y-57.865
X204.175Y-66.955
X206.49Y-72.152
X206.859Y-78.796
X206.859Y-80.242
X207.457Y-81.535
X207.522Y-66.969
X207.587Y-75.097
X207.876Y-68.709
X208.292Y-64.88
X208.452Y-48.426
X208.48Y-56.063
X208.916Y-64.305
X209.207Y-59.07
X210.225Y-81.99
X210.578Y-67.358
X210.622Y-54.148
X211.695Y-79.821
X211.892Y-76.703
X212.362Y-72.166
X212.632Y-71.301
X212.643Y-87.224
X213.159Y-76.967
X213.351Y-74.631
X213.589Y-62.055
X213.919Y-54.457
X214.109Y-78.666
X214.59Y-67.748
X214.656Y-75.762
X215.05Y-78.788
X215.15Y-73.679
X215.234Y-69.208
X215.255Y-82.316
X215.261Y-85.91
X215.306Y-88.86
X215.388Y-54.457
X215.85Y-88.258
X216.009Y-75.313
X216.2Y-62.707
X216.253Y-64.986
X216.454Y-86.551
X216.564Y-45.819
X216.709Y-71.079
X216.902Y-54.456
X217.054Y-64.013
X217.478Y-70.114
X217.8Y-66.974
X218.229Y-77.211
X218.291Y-64.013
X218.52Y-75.548
X218.6Y-58.623
X219.052Y-56.739
X219.071Y-71.6
X219.394Y-76.944
X219.396Y-75.339
X219.4Y-62.133
X219.471Y-70.837
X219.62Y-50.995
X219.873Y-71.592
X219.887Y-66.112
X220.547Y-65.471
X220.658Y-61.149
X220.679Y-78.923
X220.761Y-66.966
X220.841Y-82.736
X220.91Y-54.798
X221.035Y-57.063
X221.431Y-80.543
X221.488Y-73.562
X221.8Y-61.145
X221.911Y-64.958
X221.917Y-45.245
X221.945Y-46.083
X222.137Y-87.008
X222.202Y-52.93
X222.231Y-74.301
X222.666Y-59.844
X222.98Y-78.98
X223.535Y-58.969
X224.29Y-86.936
X224.31Y-73.552
X224.315Y-78.9
X224.404Y-65.343
X224.565Y-71.16
X224.644Y-47.075
X225.128Y-66.249
X225.359Y-72.79
X225.516Y-82.422
X225.55Y-87.417
X225.726Y-77.473
X225.753Y-54.826
X226.351Y-65.396
X226.757Y-62.99
X226.956Y-66.519
X226.993Y-53.587
X227.359Y-62.225
X227.552Y-73.579
X228.179Y-52.326
X228.463Y-83.267
X228.525Y-69.926
X228.724Y-59.686
X228.789Y-84.201
X228.882Y-76.169
X229.003Y-79.48
X229.044Y-85.318
X229.375Y-68.715
X229.383Y-58.075
X229.426Y-82.34
X229.688Y-66.686
X229.794Y-76.959
X229.811Y-79.172
X229.84Y-72.589
X229.855Y-54.699
X229.861Y-73.391
X230.043Y-62.492
X230.104Y-85.96
X230.185Y-58.056
X230.204Y-53.311
X230.245Y-81.866
X230.319Y-50.746
X230.578Y-56.764
X230.644Y-75.78
X231.034Y-66.693
X231.877Y-56.467
X233.052Y-45.145
T2
X232.405Y-46.75
X232.405Y-48.25
X232.405Y-50.25
X232.405Y-51.75
X232.405Y-53.75
X232.405Y-55.25
T4
X202.155Y-42.555
X202.195Y-47.055
X202.235Y-85.5
X202.235Y-89.5
X202.275Y-55.575
X202.275Y-58.115
X202.275Y-60.655
X202.275Y-63.195
X202.275Y-65.735
X202.425Y-51.055
X202.46Y-69.555
X202.46Y-81.5
X202.51Y-73.5
X202.51Y-77.555
X204.695Y-42.555
X204.735Y-47.055
X204.775Y-85.5
X204.775Y-89.5
X204.965Y-51.055
X205.0Y-69.555
X205.0Y-81.5
X205.05Y-73.5
X205.05Y-77.555
X206.275Y-54.88
X206.275Y-57.42
X206.275Y-59.96
X206.275Y-62.5
X207.235Y-42.555
X207.275Y-47.055
X207.505Y-51.055
X209.775Y-42.555
X209.815Y-47.055
X210.045Y-51.055
X212.315Y-42.555
X212.355Y-47.055
X212.585Y-51.055
X214.855Y-42.555
X214.895Y-47.055
X215.125Y-51.055
X219.775Y-42.555
X220.5Y-47.28
X220.5Y-49.82
X227.735Y-43.055
X230.275Y-43.055
T3
G00X210.455Y-84.845
M15
G01X210.455Y-85.945
M16
G05
G00X210.455Y-89.175
M15
G01X210.455Y-89.975
M16
G05
G00X219.095Y-84.845
M15
G01X219.095Y-85.945
M16
G05
G00X219.095Y-89.175
M15
G01X219.095Y-89.975
M16
G05
M30
